<svg width="200" height="88" viewBox="0 0 200 88" fill="none" xmlns="http://www.w3.org/2000/svg">
<path fill-rule="evenodd" clip-rule="evenodd" d="M41.5865 0.314385C40.9145 0.508294 35.1428 2.15224 28.7608 3.96759C22.3785 5.78311 17.0656 7.36562 16.9543 7.48465C16.8429 7.60351 13.211 12.3058 8.8835 17.9341L1.01524 28.1673L0 46.5085L1.49912 55.8727L8.97794 70.1099L13.4123 74.0262C17.4888 77.6265 18.2549 78.2171 22.9087 81.3474L27.9709 84.7522L43.8815 87.2121L56.7859 83.4392C63.8835 81.3643 69.7917 79.5827 69.9152 79.4804C70.0388 79.3779 73.5651 74.7705 77.7516 69.2416C81.938 63.7127 85.4491 59.08 85.554 58.947C85.6665 58.8044 86.0061 54.8939 86.38 49.4348L87.0153 40.1645L82.7391 28.907C80.3872 22.7153 78.3981 17.5246 78.3187 17.3719C78.2393 17.2194 73.8889 13.685 68.6511 9.51782L59.128 1.94123L51.9283 0.94603C43.9586 -0.155813 43.3457 -0.193164 41.5865 0.314385ZM49.6163 1.05826L55.0276 1.81906L46.4742 1.82272C41.7698 1.82482 38.0054 1.79131 38.1089 1.74837C41.7379 0.243524 43.1993 0.155907 49.6163 1.05826ZM58.7202 2.94481C58.6656 3.25688 58.3362 5.51485 57.9881 7.96271C57.6401 10.4104 57.3335 12.4348 57.3072 12.4612C57.2808 12.4875 52.6724 10.2364 47.0663 7.45865L36.8734 2.40794L58.8195 2.37757L58.7202 2.94481ZM33.6636 11.2536C32.7119 15.888 31.9007 19.7124 31.8609 19.7522C31.8211 19.792 28.1804 18.6198 23.7701 17.1473L15.7517 14.4701L16.3627 14.0987C27.8501 7.11516 35.3122 2.64478 35.3483 2.7249C35.3734 2.7811 34.6153 6.61896 33.6636 11.2536ZM46.5124 7.64767C52.198 10.4507 56.8233 12.7705 56.791 12.8029C56.5463 13.0475 32.5004 19.748 32.46 19.5829C32.4173 19.4079 35.6342 3.35794 35.8297 2.77028C35.9441 2.42679 35.6555 2.29501 46.5124 7.64767ZM68.4606 9.89202C73.2088 13.6712 77.0706 16.7864 77.0423 16.8146C76.9746 16.8823 57.9192 12.7448 57.8139 12.6394C57.7692 12.5947 58.0469 10.3734 58.4312 7.70335C58.8154 5.03313 59.1297 2.77726 59.1297 2.69034C59.1297 2.46292 59.0144 2.37373 68.4606 9.89202ZM33.8186 2.97326C33.8186 3.09509 15.8243 13.9404 15.7482 13.8645C15.6559 13.7721 17.294 7.84612 17.4568 7.68328C17.5247 7.61538 21.2142 6.52017 25.6559 5.24938C30.0974 3.97876 33.7511 2.9305 33.775 2.9202C33.7989 2.90973 33.8186 2.93364 33.8186 2.97326ZM16.2558 10.188C16.0232 11.0281 15.6655 12.3217 15.4607 13.063L15.0886 14.4109L9.44157 19.9292C6.33564 22.9642 3.7944 25.3981 3.7944 25.3381C3.7944 25.2145 16.5227 8.66085 16.6177 8.66085C16.6512 8.66085 16.4885 9.34817 16.2558 10.188ZM56.9699 13.9405C56.8472 14.3486 55.5797 18.6879 54.153 23.5836C52.7262 28.4794 51.5432 32.5087 51.5238 32.5378C51.5046 32.567 47.2463 29.818 42.0608 26.4291C36.8753 23.0401 32.6585 20.2401 32.6901 20.2065C32.7678 20.1243 56.7178 13.2281 56.983 13.2117C57.1443 13.2017 57.1412 13.3707 56.9699 13.9405ZM68.2941 15.3909C73.4785 16.5137 77.7488 17.4573 77.7837 17.4878C77.8568 17.552 73.4579 33.9367 73.2729 34.2896C73.1933 34.4415 70.5438 30.8516 65.7368 24.0793C57.1186 11.9378 57.9139 13.1199 58.4491 13.2489C58.6794 13.3044 63.1097 14.2683 68.2941 15.3909ZM65.2308 24.0797C69.3781 29.9203 72.741 34.7291 72.704 34.7661C72.6101 34.86 52.1399 32.7974 52.025 32.6825C51.9735 32.631 53.0502 28.7563 54.4175 24.072C57.3026 14.1872 57.5646 13.3187 57.6367 13.4C57.6661 13.4333 61.0834 18.2392 65.2308 24.0797ZM23.5196 17.4711C27.792 18.889 31.3395 20.0983 31.4032 20.1584C31.467 20.2184 26.7603 23.7035 20.944 27.9032C15.1278 32.1029 10.35 35.5194 10.3266 35.4955C10.1941 35.3599 15.4181 14.7712 15.5711 14.8268C15.6704 14.8631 19.2473 16.053 23.5196 17.4711ZM12.3012 25.6344C10.9348 31.0822 9.75386 35.5437 9.67705 35.5489C9.60042 35.554 7.73333 33.9243 5.5283 31.9271L1.51902 28.2961L8.11178 21.8048C11.7377 18.2346 14.7227 15.4072 14.745 15.5215C14.7674 15.636 13.6677 20.1868 12.3012 25.6344ZM82.3238 28.9269C84.5543 34.7934 86.3533 39.6196 86.3212 39.6516C86.2544 39.7184 73.8207 35.1018 73.6747 34.9558C73.5607 34.8419 78.0241 18.2605 78.1688 18.2603C78.2234 18.2603 80.0931 23.0602 82.3238 28.9269ZM42.1701 26.9871C47.0808 30.2029 51.099 32.8824 51.0993 32.9415C51.0998 33.0316 33.1246 46.0415 32.4658 46.4277C32.2921 46.5297 32.2476 43.9015 32.2476 33.5254V20.4951L32.7446 20.8176C33.0179 20.9949 37.2594 23.7713 42.1701 26.9871ZM31.8985 33.6194C31.8985 43.2665 31.8475 46.5351 31.6969 46.5351C31.4252 46.5351 10.4261 36.2083 10.4332 36.0781C10.4411 35.9392 31.5668 20.7038 31.7518 20.7038C31.8325 20.7038 31.8985 26.5158 31.8985 33.6194ZM5.60772 32.519C8.55079 35.1965 9.55661 36.2118 9.49603 36.4434C9.45117 36.6152 7.73752 40.7698 5.68802 45.6758L1.96152 54.5958L1.85347 51.6563C1.79412 50.0396 1.68991 44.397 1.62201 39.1173C1.55428 33.8376 1.46002 29.3805 1.41288 29.2124C1.24164 28.6028 1.70457 28.9677 5.60772 32.519ZM72.3654 35.1841C72.609 35.1878 72.7485 35.281 72.7145 35.4177C72.6143 35.8217 58.1732 55.5866 58.0665 55.4659C57.9604 55.3456 51.9728 33.5798 51.9728 33.3142C51.9728 33.2325 56.4698 33.6184 61.9663 34.1718C67.4629 34.7251 72.1423 35.1806 72.3654 35.1841ZM54.6146 44.5715C56.2975 50.6913 57.6568 55.7224 57.6353 55.7523C57.5943 55.8087 32.7428 47.0885 32.6339 46.9794C32.5997 46.9452 33.9323 45.934 35.5953 44.7323C37.2583 43.5306 41.4469 40.504 44.9031 38.0066C48.3594 35.5091 51.2699 33.4611 51.3709 33.4554C51.472 33.4496 52.9315 38.452 54.6146 44.5715ZM1.30867 48.1931L1.31618 52.0329L0.883271 49.5022C0.457346 47.0122 0.453505 46.9023 0.645695 42.6953C1.04404 33.9776 1.28493 35.9748 1.30867 48.1931ZM80.426 37.9627C84.6088 39.5301 86.4308 40.2909 86.3912 40.4537C86.0623 41.8053 78.2388 59.6066 78.1276 59.2564C78.0546 59.0273 77.0486 53.8132 75.8918 47.6695C74.735 41.5259 73.7416 36.2725 73.6843 35.9956C73.5503 35.3484 73.0894 35.2138 80.426 37.9627ZM75.5287 47.9104C76.7892 54.5705 77.7804 60.0596 77.7315 60.1085C77.6021 60.2378 58.4235 56.0701 58.4751 55.924C58.5612 55.6809 73.1317 35.6929 73.1839 35.7465C73.2132 35.7765 74.2684 41.2503 75.5287 47.9104ZM21.0477 41.8226C26.8167 44.6544 31.5186 47.0346 31.4963 47.1119C31.4549 47.2548 15.7803 60.1391 15.7173 60.0822C15.67 60.0394 10.2531 36.8454 10.2531 36.6857C10.2531 36.511 9.39235 36.1013 21.0477 41.8226ZM12.6215 48.7168C14.0828 54.9564 15.2591 60.0825 15.2357 60.1082C15.1422 60.2103 2.0502 55.6884 2.0495 55.5538C2.04758 55.1749 9.80972 36.914 9.88198 37.1272C9.92754 37.2618 11.1605 42.4771 12.6215 48.7168ZM85.9194 50.0807C85.6057 54.6709 85.3215 58.4485 85.2877 58.4757C85.173 58.5684 78.6354 60.1621 78.5833 60.1101C78.5549 60.0816 80.2214 56.0928 82.2866 51.246C84.3518 46.3991 86.1156 42.2458 86.2062 42.0165C86.5082 41.2517 86.4926 41.6912 85.9194 50.0807ZM34.255 59.8633C35.4652 66.3778 36.4164 71.7469 36.3688 71.7947C36.2811 71.8822 16.631 60.9547 16.2394 60.6009C16.0816 60.4581 17.999 58.7944 23.9201 53.9364C30.0687 48.8916 31.8381 47.5236 31.9329 47.7404C31.9999 47.8935 33.0448 53.3488 34.255 59.8633ZM45.199 51.8711C51.9862 54.2586 57.4995 56.2518 57.4508 56.3007C56.2888 57.4624 37.0202 71.9 36.9207 71.6834C36.78 71.3774 32.4221 48.0942 32.4221 47.6488C32.4221 47.4957 32.5204 47.4063 32.6403 47.4503C32.7604 47.4943 38.4118 49.4837 45.199 51.8711ZM9.00936 58.4785C12.4962 59.6717 15.3673 60.6731 15.3897 60.7039C15.412 60.7346 15.8785 64.1762 16.4262 68.352C16.9738 72.5278 17.4638 76.1406 17.5148 76.3806C17.5972 76.7678 17.5783 76.7875 17.3477 76.5552C17.1175 76.323 2.78981 56.9765 2.49498 56.4995C2.30226 56.1878 2.4166 56.2223 9.00936 58.4785ZM67.9886 58.5262C73.197 59.6509 77.4585 60.6194 77.4585 60.6782C77.4585 60.8019 59.9121 75.0423 59.6519 75.1297C59.5567 75.1619 59.4789 74.9629 59.4789 74.6878C59.4789 74.4128 59.2045 70.3417 58.869 65.6411C58.188 56.0958 58.2084 56.4841 58.3879 56.4824C58.46 56.4817 62.7803 57.4015 67.9886 58.5262ZM58.487 66.0185C58.8475 71.1667 59.12 75.3973 59.0924 75.4196C58.9728 75.5172 37.4838 72.2822 37.5254 72.1729C37.5786 72.0331 57.5983 56.6728 57.7389 56.6639C57.7898 56.6607 58.1265 60.8704 58.487 66.0185ZM9.75665 67.043C13.1572 71.6507 16.0122 75.5385 16.101 75.6825C16.3339 76.0607 15.2554 75.1592 12.086 72.3262L9.29302 69.8298L6.44316 64.422C3.70747 59.2311 3.2791 58.3858 3.48159 58.578C3.53221 58.626 6.35606 62.4352 9.75665 67.043ZM84.79 59.1976C84.79 59.2852 71.3335 77.1128 70.9636 77.5151C70.8743 77.6123 70.8781 77.4964 70.9722 77.2533C71.4631 75.9851 78.1621 60.9463 78.2955 60.8129C78.6146 60.4939 84.79 58.9578 84.79 59.1976ZM26.0872 66.6302C31.5937 69.715 36.0525 72.2853 35.9956 72.3422C35.8257 72.5121 18.2237 77.4268 18.128 77.3313C18.0796 77.2828 17.5897 73.8879 17.0391 69.7869C16.4887 65.686 15.9924 62.0361 15.9366 61.676C15.8006 60.8009 14.8763 60.3497 26.0872 66.6302ZM73.596 70.2895C71.4681 75.1276 69.7122 79.1058 69.6939 79.1301C69.6576 79.1779 59.9987 75.7368 59.9044 75.6425C59.873 75.6113 63.7879 72.3913 68.604 68.4873C73.4199 64.5831 77.3838 61.4123 77.4126 61.4411C77.4412 61.4697 75.7239 65.4516 73.596 70.2895ZM40.0485 79.5659C41.8749 83.3336 43.3414 86.4491 43.3072 86.489C43.2253 86.5847 18.8131 77.8932 18.8095 77.767C18.8063 77.6631 35.987 72.7597 36.4513 72.732C36.6475 72.7201 37.6909 74.7025 40.0485 79.5659ZM47.7813 74.2026C53.399 75.0205 58.1763 75.73 58.3976 75.7792C58.7279 75.8525 57.5083 76.8093 51.5898 81.1191C47.6242 84.007 44.2807 86.4492 44.1599 86.5465C43.9926 86.681 43.5926 86.001 42.479 83.69C41.6752 82.0216 40.1497 78.8699 39.0889 76.6861C38.0281 74.5023 37.2519 72.7154 37.3639 72.7154C37.4758 72.7154 42.1636 73.3846 47.7813 74.2026ZM63.9125 77.5399C69.268 79.46 68.966 79.3449 68.8796 79.4313C68.7529 79.5581 45.4619 86.3351 45.3923 86.2655C45.2851 86.1583 59.1943 76.0485 59.4612 76.0396C59.5956 76.0352 61.5987 76.7103 63.9125 77.5399ZM30.6453 82.4845C36.4122 84.5458 41.103 86.2599 41.0691 86.2937C41.0354 86.3276 38.1137 85.9054 34.5766 85.3558L28.1454 84.3562L23.9997 81.5818C20.3831 79.1617 19.4037 78.4494 20.007 78.6787C20.0913 78.7107 24.8786 80.4234 30.6453 82.4845Z" fill="#00474B"/>
<path d="M104.557 43.3911C104.557 37.9481 107.222 36.3606 111.814 36.3606H114.479V26.0983C110.227 26.0983 106.768 28.3662 104.557 31.7114V26.4385H94.8616V58.0758H104.557V43.3911Z" fill="#00474B"/>
<path d="M128.808 30.9176V16.1195H119.113V58.0758H128.808V53.6534C130.566 56.4316 133.911 58.5294 138.56 58.5294C146.328 58.5294 152.508 52.1792 152.508 42.2004C152.508 32.2216 146.385 25.9849 138.56 25.9849C134.025 25.9849 130.566 28.0827 128.808 30.9176ZM142.643 42.2004C142.643 47.2465 139.354 50.0814 135.669 50.0814C132.04 50.0814 128.752 47.3032 128.752 42.2571C128.752 37.211 132.04 34.4328 135.669 34.4328C139.354 34.4328 142.643 37.1543 142.643 42.2004Z" fill="#00474B"/>
<path d="M157.595 58.0758H167.29V26.4385H157.595V58.0758ZM162.471 23.15C165.872 23.15 168.197 20.8254 168.197 17.9338C168.197 14.9855 165.872 12.6609 162.471 12.6609C159.012 12.6609 156.687 14.9855 156.687 17.9338C156.687 20.8254 159.012 23.15 162.471 23.15Z" fill="#00474B"/>
<path d="M200 48.8908C199.83 37.0976 182.707 40.6696 182.707 35.6235C182.707 34.0927 183.955 33.1855 186.222 33.1855C188.944 33.1855 190.588 34.6029 190.872 36.7575H199.83C199.206 30.5207 194.67 25.9849 186.506 25.9849C178.228 25.9849 173.636 30.4073 173.636 35.7936C173.636 47.4166 190.872 43.7313 190.872 48.8341C190.872 50.2515 189.568 51.3855 187.073 51.3855C184.408 51.3855 182.424 49.9113 182.197 47.7001H172.615C173.069 53.8235 178.738 58.5294 187.186 58.5294C195.124 58.5294 200 54.3904 200 48.8908Z" fill="#00474B"/>
</svg>
